<svg width="60" height="60" viewBox="0 0 60 60" fill="none" xmlns="http://www.w3.org/2000/svg">
<path d="M0 8C0 3.58172 3.58172 0 8 0H52C56.4183 0 60 3.58172 60 8V52C60 56.4183 56.4183 60 52 60H8C3.58172 60 0 56.4183 0 52V8Z" fill="#25B945"/>
<path d="M45.7435 47.2733C45.986 47.2733 46.2064 47.4587 46.4048 47.8294C46.6032 48.2001 46.7465 48.6287 46.8347 49.1153C46.9449 49.5787 47 49.9263 47 50.158C47 51.386 45.5671 52 42.7014 52C40.0561 52 38.0501 51.1195 36.6834 49.3586C35.515 50.1001 34.1152 50.7256 32.484 51.2354C30.8747 51.7451 29.0892 52 27.1273 52C24.989 52 22.9168 51.5598 20.9108 50.6793C18.9269 49.7988 17.2735 48.397 15.9509 46.4739C14.6503 44.5508 14 42.0948 14 39.1058C14 37.0437 14.3527 35.2133 15.0581 33.6145C15.7856 32.0158 16.7114 30.7299 17.8357 29.7567C18.982 28.7604 20.1834 28.0885 21.4399 27.7409V27.4629C19.6764 26.7678 18.2214 25.6324 17.0752 24.0569C15.9289 22.4581 15.3557 20.5698 15.3557 18.3918C15.3557 16.1443 15.8627 14.2443 16.8768 12.6919C17.8908 11.1164 19.2906 9.94629 21.0762 9.18167C22.8617 8.39389 24.9118 8 27.2265 8C28.505 8 29.6513 8.15061 30.6653 8.45182C31.7014 8.75303 32.2194 9.27435 32.2194 10.0158C32.2194 10.178 32.1643 10.514 32.0541 11.0237C31.9659 11.5103 31.8226 11.9737 31.6242 12.4139C31.4479 12.831 31.2164 13.0395 30.9299 13.0395C30.8858 13.0395 30.6433 12.9932 30.2024 12.9005C29.1222 12.5993 28.1743 12.4487 27.3587 12.4487C24.6473 12.4487 22.7956 13.1206 21.8036 14.4645C20.8116 15.8083 20.3156 17.3144 20.3156 18.9826C20.3156 20.118 20.5912 21.2649 21.1423 22.4234C21.6934 23.5587 22.5531 24.5203 23.7214 25.3081C24.9118 26.0727 26.3888 26.455 28.1523 26.455H35.0962L35.8236 19.921C35.8898 19.0174 36.507 18.5656 37.6754 18.5656H38.3036C38.8768 18.5656 39.3066 18.693 39.5932 18.9479C39.9018 19.1796 40.0561 19.5039 40.0561 19.921V26.455H44.983C45.4018 26.455 45.6994 26.6056 45.8757 26.9068C46.0521 27.1848 46.1403 27.6482 46.1403 28.297V29.0616C46.1403 29.6872 46.0521 30.1506 45.8757 30.4518C45.6994 30.753 45.4018 30.9036 44.983 30.9036H40.0561V42.9984C40.0561 44.6898 40.3427 45.8715 40.9158 46.5434C41.489 47.2154 42.2605 47.5513 43.2305 47.5513C43.9579 47.5513 44.52 47.505 44.9168 47.4123C45.3357 47.3196 45.6112 47.2733 45.7435 47.2733ZM19.1253 39.0363C19.1253 41.1216 19.5551 42.8015 20.4148 44.0758C21.2966 45.3502 22.3768 46.2538 23.6553 46.7867C24.9339 47.2965 26.2455 47.5513 27.5902 47.5513C28.8908 47.5513 30.1914 47.3428 31.492 46.9258C32.8146 46.4855 34.0491 45.9526 35.1954 45.327C35.1293 44.7246 35.0962 44.1106 35.0962 43.485V30.9036H27.9208C25.0772 30.9036 22.8948 31.5176 21.3737 32.7457C19.8747 33.9505 19.1253 36.0474 19.1253 39.0363Z" fill="white"/>
</svg>