<svg width="24" height="28" viewBox="0 0 24 28" fill="none" xmlns="http://www.w3.org/2000/svg">
<path d="M12 27.0356C11.6269 27.0356 11.28 26.9385 10.956 26.7705L7.65164 24.8745C7.15527 24.6105 7.404 24.5145 7.55345 24.4665C8.22327 24.2505 8.34764 24.2025 9.04364 23.8174C9.11782 23.7694 9.21818 23.7934 9.29236 23.8414L11.8265 25.3065C11.9247 25.3545 12.0502 25.3545 12.1244 25.3065L22.0375 19.7603C22.1356 19.7123 22.1858 19.6163 22.1858 19.4963V8.42798C22.1858 8.30798 22.1367 8.21198 22.0375 8.16398L12.1244 2.64291C12.0251 2.59491 11.9007 2.59491 11.8265 2.64291L1.91345 8.16398C1.81418 8.21198 1.764 8.33198 1.764 8.42798V19.4963C1.764 19.5923 1.81418 19.7123 1.91345 19.7603L4.62109 21.2734C6.08727 21.9934 7.00582 21.1534 7.00582 20.3134V9.38907C7.00582 9.24507 7.13018 9.10107 7.30473 9.10107H8.57127C8.72073 9.10107 8.86909 9.22107 8.86909 9.38907V20.3123C8.86909 22.2094 7.80109 23.3134 5.93782 23.3134C5.36618 23.3134 4.91891 23.3134 3.65236 22.7134L1.044 21.2734C0.729691 21.1006 0.467218 20.847 0.283688 20.5388C0.100157 20.2306 0.00222314 19.879 0 19.5203V8.45198C0 7.73199 0.397091 7.05999 1.044 6.69999L10.9571 1.15273C11.2798 0.987222 11.6373 0.900902 12 0.900902C12.3627 0.900902 12.7202 0.987222 13.0429 1.15273L22.9571 6.6989C23.6029 7.0589 24 7.73089 24 8.45089V19.5192C24 20.2392 23.6029 20.9112 22.9571 21.2723L13.0429 26.8174C12.7137 26.9601 12.3588 27.0336 12 27.0334V27.0356ZM15.0556 19.4243C10.7084 19.4243 9.81382 17.5043 9.81382 15.8712C9.81382 15.7272 9.93818 15.5832 10.1116 15.5832H11.4033C11.5527 15.5832 11.676 15.6792 11.676 15.8232C11.8756 17.0952 12.4473 17.7192 15.0807 17.7192C17.1676 17.7192 18.0622 17.2632 18.0622 16.1832C18.0622 15.5592 17.8135 15.1032 14.5593 14.7912C11.8505 14.5262 10.1618 13.9512 10.1618 11.8622C10.1618 9.91707 11.8505 8.76398 14.6836 8.76398C17.8636 8.76398 19.4291 9.82107 19.6276 12.1262C19.6254 12.2042 19.5991 12.2796 19.5524 12.3422C19.5033 12.3902 19.4291 12.4382 19.3538 12.4382H18.0622C17.9994 12.4366 17.9389 12.4147 17.8897 12.3758C17.8405 12.3368 17.8053 12.2829 17.7895 12.2222C17.4905 10.9022 16.7204 10.4691 14.6836 10.4691C12.3971 10.4691 12.1244 11.2371 12.1244 11.8131C12.1244 12.5102 12.4473 12.7262 15.528 13.1102C18.5836 13.4942 20.0247 14.0462 20.0247 16.1101C19.9996 18.2243 18.2116 19.4243 15.0556 19.4243Z" fill="#3F3F3F"/>
</svg>
