<svg width="22" height="22" viewBox="0 0 22 22" fill="none" xmlns="http://www.w3.org/2000/svg">
<path d="M21.6728 4.52558C20.9073 4.86475 20.0851 5.09392 19.2207 5.1975C20.1126 4.66381 20.7799 3.82384 21.098 2.83433C20.26 3.33207 19.3429 3.68243 18.3865 3.87017C17.7433 3.18346 16.8915 2.7283 15.9631 2.57535C15.0348 2.4224 14.0819 2.58022 13.2525 3.02431C12.423 3.4684 11.7634 4.17391 11.376 5.03131C10.9886 5.88871 10.8951 6.85002 11.11 7.766C9.41205 7.68075 7.75099 7.23942 6.23464 6.47066C4.71829 5.70191 3.38052 4.6229 2.30817 3.30367C1.9415 3.93617 1.73067 4.6695 1.73067 5.4505C1.73026 6.15358 1.9034 6.84589 2.23472 7.466C2.56605 8.08612 3.04532 8.61487 3.63 9.00533C2.95192 8.98376 2.2888 8.80053 1.69583 8.47092V8.52592C1.69577 9.51201 2.03686 10.4678 2.66125 11.231C3.28564 11.9942 4.15486 12.5179 5.12142 12.7133C4.49239 12.8835 3.83289 12.9086 3.19275 12.7866C3.46546 13.6351 3.99666 14.377 4.712 14.9086C5.42734 15.4402 6.29101 15.7347 7.18208 15.7511C5.66943 16.9385 3.80131 17.5827 1.87825 17.5798C1.5376 17.5799 1.19724 17.56 0.858917 17.5203C2.81094 18.7753 5.08323 19.4414 7.40392 19.4388C15.2598 19.4388 19.5543 12.9323 19.5543 7.28933C19.5543 7.106 19.5498 6.92083 19.5415 6.7375C20.3769 6.13339 21.0979 5.38532 21.6709 4.52833L21.6728 4.52558Z" fill="black" fill-opacity="0.8"/>
</svg>
