<svg width="24" height="24" viewBox="0 0 24 24" fill="none" xmlns="http://www.w3.org/2000/svg">
<path d="M19.575 4.275C17.625 1.5 13.8 0.675 11.025 2.4L6.15 5.55C4.8 6.375 3.9 7.725 3.6 9.3C3.375 10.575 3.6 11.925 4.2 13.125C3.75 13.725 3.525 14.475 3.375 15.225C3.075 16.8 3.45 18.45 4.425 19.725C6.375 22.5 10.2 23.325 12.975 21.6L17.85 18.45C19.2 17.625 20.1 16.275 20.4 14.7C20.625 13.425 20.4 12.075 19.8 10.875C20.25 10.275 20.475 9.525 20.625 8.775C20.925 7.2 20.55 5.55 19.575 4.275V4.275ZM18.225 8.25C18.225 8.4 18.15 8.55 18.075 8.7L18 9L17.775 8.85C17.175 8.4 16.575 8.1 15.825 7.875L15.675 7.8V7.65C15.675 7.425 15.6 7.125 15.45 6.9C15.15 6.525 14.7 6.3 14.175 6.45C14.1 6.45 13.95 6.525 13.875 6.6L9 9.675C8.775 9.825 8.625 10.05 8.55 10.35C8.475 10.65 8.55 10.95 8.7 11.175C9 11.55 9.45 11.775 9.975 11.625C10.05 11.625 10.2 11.55 10.275 11.475L12.15 10.275C12.45 10.05 12.825 9.9 13.125 9.825C14.7 9.45 16.35 10.05 17.325 11.4C17.85 12.15 18.075 13.2 17.925 14.1C17.775 15 17.175 15.825 16.425 16.35L11.55 19.5C11.25 19.725 10.875 19.875 10.575 19.95C9 20.325 7.35 19.725 6.375 18.375C5.85 17.625 5.625 16.575 5.775 15.675C5.775 15.525 5.85 15.375 5.925 15.225L6 15L6.225 15.15C6.825 15.6 7.425 15.9 8.175 16.125L8.325 16.2V16.35C8.325 16.575 8.4 16.875 8.55 17.1C8.85 17.475 9.3 17.7 9.825 17.55C9.9 17.55 10.05 17.475 10.125 17.4L15 14.25C15.225 14.1 15.375 13.875 15.45 13.575C15.525 13.275 15.45 12.975 15.3 12.75C15 12.375 14.55 12.15 14.025 12.3C13.95 12.3 13.8 12.375 13.725 12.45L11.85 13.65C11.55 13.875 11.175 14.025 10.875 14.1C9.3 14.475 7.65 13.875 6.675 12.525C6.075 11.775 5.925 10.725 6.075 9.825C6.225 8.925 6.825 8.1 7.575 7.575L12.45 4.425C12.75 4.2 13.125 4.05 13.425 3.975C15 3.6 16.65 4.2 17.625 5.55C18.15 6.375 18.375 7.35 18.225 8.25Z" fill="#3F3F3F"/>
</svg>
