<svg width="24" height="24" viewBox="0 0 24 24" fill="none" xmlns="http://www.w3.org/2000/svg">
<path d="M12 4.89843C18.4275 4.89843 23.37 8.28281 23.37 12C23.37 15.7172 18.4238 19.1016 12 19.1016C5.5725 19.1016 0.63 15.7172 0.63 12C0.63 8.28281 5.57625 4.89843 12 4.89843ZM12 4.11093C5.37375 4.11093 0 7.64062 0 12C0 16.3594 5.37375 19.8891 12 19.8891C18.6263 19.8891 24 16.3594 24 12C24 7.64062 18.6263 4.11093 12 4.11093ZM8.1825 11.3672C7.88625 13.2656 6.84 13.0687 5.55375 13.0687L6.0675 9.75937C7.4925 9.75937 8.46 9.56718 8.1825 11.3672ZM3.6525 16.4203H5.02875L5.355 14.3203C6.89625 14.3203 7.8525 14.4609 8.7375 13.425C9.71625 12.3 9.97125 10.2984 9.27375 9.29531C8.91 8.77031 8.325 8.51249 7.53 8.51249H4.87875L3.6525 16.4203ZM10.6163 6.40781H11.985L11.6588 8.50781C12.84 8.50781 13.935 8.39999 14.4638 9.00937C15.0188 9.64687 14.7525 10.4625 14.1525 14.3109H12.765C13.3425 10.5891 13.4513 10.2797 13.2413 9.99843C13.0388 9.72656 12.5775 9.78281 11.4638 9.78281L10.7588 14.3109H9.39L10.6163 6.40781V6.40781ZM18.9375 11.3672C18.6375 13.2937 17.5613 13.0687 16.3088 13.0687L16.8225 9.75937C18.255 9.75937 19.215 9.56718 18.9375 11.3672V11.3672ZM14.4075 16.4203H15.7875L16.1138 14.3203C17.7338 14.3203 18.63 14.4375 19.4963 13.425C20.475 12.3 20.73 10.2984 20.0325 9.29531C19.6688 8.77031 19.0838 8.51249 18.2888 8.51249H15.6375L14.4075 16.4203V16.4203Z" fill="#3F3F3F"/>
</svg>
